# xmcd
#
# Track frame offsets: 
#        150
#        4263
#        24448
#        47670
#        74509
#        96982
#        106313
#        127713
#        147023
#        168327
#        188351
#        203923
#        225535
#
# Disc length: 3384 seconds
#
# Revision: 0
# Processed by: cddbd v1.5.2PL0 Copyright (c) Steve Scherf et al.
# Submitted via: ExactAudioCopy v0.95b4
#
DISCID=a10d360d
DTITLE=Sugarcane Collins - Way Down The River
DYEAR=2006
DGENRE=Blues
TTITLE0=Like A Midnight Shower Of Rain
TTITLE1=Got A Mind To Ramble
TTITLE2=One Wing Frank
TTITLE3=Folks of the Road
TTITLE4=Leadbelly
TTITLE5=All The Way To St. Louis
TTITLE6=I've Heard The News
TTITLE7=Follow Me Boy
TTITLE8=Sallie Mae
TTITLE9=Shine The Light
TTITLE10=Dancing Rabbit Creek
TTITLE11=Stranger Here
TTITLE12=Way Down The River
EXTD=
EXTT0=
EXTT1=
EXTT2=
EXTT3=
EXTT4=
EXTT5=
EXTT6=
EXTT7=
EXTT8=
EXTT9=
EXTT10=
EXTT11=
EXTT12=
PLAYORDER=
